<svg width="1200" height="825" viewBox="0 0 1200 825" fill="none" xmlns="http://www.w3.org/2000/svg">
  <rect width="1200" height="825" fill="#F7F5EF"/>
  <rect x="108" y="102" width="984" height="622" rx="28" fill="#FFFFFF"/>
  <rect x="160" y="156" width="228" height="516" rx="22" fill="#151515"/>
  <rect x="438" y="156" width="602" height="100" rx="22" fill="#E9EEE5"/>
  <rect x="438" y="304" width="284" height="368" rx="22" fill="#E9EEE5"/>
  <rect x="756" y="304" width="284" height="368" rx="22" fill="#E9EEE5"/>
  <rect x="204" y="214" width="140" height="18" rx="9" fill="#F7F5EF"/>
  <rect x="204" y="274" width="104" height="18" rx="9" fill="#F7F5EF" opacity=".68"/>
  <rect x="204" y="326" width="128" height="18" rx="9" fill="#F7F5EF" opacity=".68"/>
  <rect x="204" y="378" width="88" height="18" rx="9" fill="#F7F5EF" opacity=".68"/>
  <rect x="496" y="552" width="40" height="70" rx="10" fill="#1F6F61"/>
  <rect x="560" y="476" width="40" height="146" rx="10" fill="#1F6F61"/>
  <rect x="624" y="392" width="40" height="230" rx="10" fill="#1F6F61"/>
  <path d="M808 570C850 464 910 442 988 386" stroke="#1F6F61" stroke-width="20" stroke-linecap="round"/>
  <circle cx="988" cy="386" r="25" fill="#D8B14B"/>
</svg>
