<svg width="1200" height="825" viewBox="0 0 1200 825" fill="none" xmlns="http://www.w3.org/2000/svg">
  <rect width="1200" height="825" fill="#E9EEE5"/>
  <rect x="96" y="92" width="1008" height="640" rx="30" fill="#151515"/>
  <rect x="146" y="146" width="282" height="510" rx="20" fill="#1F6F61"/>
  <rect x="474" y="146" width="480" height="76" rx="18" fill="#F7F5EF"/>
  <rect x="474" y="262" width="580" height="160" rx="22" fill="#FFFFFF"/>
  <rect x="474" y="462" width="250" height="194" rx="22" fill="#FFFFFF"/>
  <rect x="764" y="462" width="290" height="194" rx="22" fill="#FFFFFF"/>
  <rect x="196" y="202" width="182" height="22" rx="11" fill="#F7F5EF"/>
  <rect x="196" y="264" width="140" height="22" rx="11" fill="#F7F5EF" opacity=".7"/>
  <rect x="196" y="318" width="162" height="22" rx="11" fill="#F7F5EF" opacity=".7"/>
  <rect x="196" y="372" width="108" height="22" rx="11" fill="#F7F5EF" opacity=".7"/>
  <path d="M530 366C590 294 653 330 704 350C766 374 819 338 884 292" stroke="#1F6F61" stroke-width="18" stroke-linecap="round"/>
</svg>
